# xmcd CD database file
#
# Track frame offsets:
#	150
#	16527
#	28186
#	42873
#	53416
#	68212
#	90653
#	105766
#	133747
#	146640
#	157057
#
# Disc length: 2320 seconds
#
# Revision: 5
# Processed by: cddbd v1.5.2PL0 Copyright (c) Steve Scherf et al.
# Submitted via: CDex 1.51
#
DISCID=85090e0b
DTITLE=Crooked Still - Shaken By A Low Sound
DYEAR=2006
DGENRE=Bluegrass
TTITLE0=Can't You Hear Me Callin'
TTITLE1=Little Sadie
TTITLE2=New Railroad
TTITLE3=Oxford Town - Cumberland Gap
TTITLE4=Lone Pilgrim
TTITLE5=Come On In My Kitchen
TTITLE6=Ain't No Grave
TTITLE7=Ecstasy
TTITLE8=Mountain Jumper
TTITLE9=Railroad Bill
TTITLE10=Wind and Rain
EXTD=YEAR: 2006
EXTT0=
EXTT1=
EXTT2=
EXTT3=
EXTT4=
EXTT5=
EXTT6=
EXTT7=
EXTT8=
EXTT9=
EXTT10=
PLAYORDER=
